<?xml version="1.0" encoding="UTF-8" standalone="no"?>
<!-- Created with Inkscape (http://www.inkscape.org/) -->

<svg
   width="512mm"
   height="512mm"
   viewBox="0 0 512.00001 512.00001"
   version="1.1"
   id="svg5"
   inkscape:version="1.2.2 (732a01da63, 2022-12-09)"
   sodipodi:docname="smarty.svg"
   xmlns:inkscape="http://www.inkscape.org/namespaces/inkscape"
   xmlns:sodipodi="http://sodipodi.sourceforge.net/DTD/sodipodi-0.dtd"
   xmlns="http://www.w3.org/2000/svg"
   xmlns:svg="http://www.w3.org/2000/svg">
  <sodipodi:namedview
     id="namedview7"
     pagecolor="#ffffff"
     bordercolor="#666666"
     borderopacity="1.0"
     inkscape:pageshadow="2"
     inkscape:pageopacity="0.0"
     inkscape:pagecheckerboard="0"
     inkscape:document-units="mm"
     showgrid="false"
     inkscape:lockguides="true"
     inkscape:zoom="0.32026165"
     inkscape:cx="1569.0296"
     inkscape:cy="750.94848"
     inkscape:window-width="3840"
     inkscape:window-height="2036"
     inkscape:window-x="-12"
     inkscape:window-y="-12"
     inkscape:window-maximized="1"
     inkscape:current-layer="layer1"
     inkscape:showpageshadow="2"
     inkscape:deskcolor="#d1d1d1" />
  <defs
     id="defs2" />
  <g
     inkscape:label="Layer 1"
     inkscape:groupmode="layer"
     id="layer1"
     transform="translate(-15.262601,-77.38089)">
    <rect
       style="fill:#ffffff;fill-opacity:1;stroke:none;stroke-width:2.33549"
       id="rect313"
       width="512"
       height="512"
       x="15.262601"
       y="77.38089"
       rx="32" />
    <g
       id="g473"
       transform="matrix(1.7909069,0,0,1.7909069,60.722583,97.250484)">
      <rect
         style="fill:#969696;fill-opacity:1;stroke:none;stroke-width:4.99999;stroke-linecap:round;stroke-linejoin:round;stroke-opacity:1"
         id="rect1315"
         width="154.51414"
         height="83.829033"
         x="40.303623"
         y="77.38089"
         ry="17.81732"
         rx="17.81732" />
      <path
         style="color:#000000;fill:#5a5a5a;stroke-linecap:round;stroke-linejoin:round;stroke-dasharray:29.9999, 9.99998;-inkscape-stroke:none"
         d="m 53.080078,110.68164 a 2.499995,2.499995 0 0 0 -2.5,2.5 2.499995,2.499995 0 0 0 2.5,2.5 h 30 a 2.499995,2.499995 0 0 0 2.5,-2.5 2.499995,2.499995 0 0 0 -2.5,-2.5 z m 40,0 a 2.499995,2.499995 0 0 0 -2.5,2.5 2.499995,2.499995 0 0 0 2.5,2.5 h 30.000002 a 2.499995,2.499995 0 0 0 2.5,-2.5 2.499995,2.499995 0 0 0 -2.5,-2.5 z m 40.000002,0 a 2.499995,2.499995 0 0 0 -2.5,2.5 2.499995,2.499995 0 0 0 2.5,2.5 h 30 a 2.499995,2.499995 0 0 0 2.5,-2.5 2.499995,2.499995 0 0 0 -2.5,-2.5 z m 40,0 a 2.499995,2.499995 0 0 0 -2.5,2.5 2.499995,2.499995 0 0 0 2.5,2.5 h 8.96094 a 2.500245,2.500245 0 0 0 0.002,0 c 3.44696,-0.002 6.89694,0.5325 10.16797,1.5918 a 2.500245,2.500245 0 0 0 0,0.002 c 2.92072,0.94385 5.71094,2.3053 8.25195,4.02734 a 2.499995,2.499995 0 0 0 3.47266,-0.66796 2.499995,2.499995 0 0 0 -0.66797,-3.47071 c -2.93397,-1.98835 -6.14492,-3.55659 -9.51758,-4.64648 -3.78132,-1.22455 -7.74444,-1.83789 -11.70898,-1.83594 z m -130.527346,1.47461 c -1.288779,0.36891 -2.55269,0.80953 -3.789062,1.3125 -4.228937,1.71985 -8.12997,4.21309 -11.46875,7.32227 -3.526362,3.27928 -6.414022,7.23127 -8.458985,11.5957 a 2.499995,2.499995 0 0 0 1.203125,3.32422 2.499995,2.499995 0 0 0 3.324219,-1.20313 c 1.768882,-3.77521 4.280435,-7.21327 7.335938,-10.05468 a 2.500245,2.500245 0 0 0 0.002,-0.002 c 2.892961,-2.69441 6.285466,-4.86316 9.945312,-6.35156 1.075443,-0.4375 2.172472,-0.81682 3.283203,-1.13477 a 2.499995,2.499995 0 0 0 1.714844,-3.09179 2.499995,2.499995 0 0 0 -3.091797,-1.7168 z m 166.923826,11.2832 a 2.499995,2.499995 0 0 0 -1.82617,0.56641 2.499995,2.499995 0 0 0 -0.32617,3.52148 c 2.5544,3.07485 4.54157,6.63246 5.8164,10.41993 a 2.500245,2.500245 0 0 0 0,0.002 c 1.09723,3.25057 1.67521,6.68454 1.7168,10.12305 0.0231,1.85883 -0.10721,3.71921 -0.39258,5.54882 a 2.499995,2.499995 0 0 0 2.08594,2.85352 2.499995,2.499995 0 0 0 2.85547,-2.08399 c 0.32954,-2.11286 0.47574,-4.24821 0.44922,-6.3789 -0.0479,-3.95578 -0.70855,-7.903 -1.97656,-11.66016 v -0.002 c -1.4734,-4.37667 -3.75901,-8.46656 -6.70899,-12.01758 a 2.499995,2.499995 0 0 0 -1.69336,-0.89258 z M 18.574219,140.50781 a 2.499995,2.499995 0 0 0 -2.855469,2.08399 c -0.331542,2.11857 -0.479683,4.26013 -0.453125,6.39648 0.04786,3.95642 0.71011,7.90442 1.978516,11.66211 1.471546,4.37096 3.750991,8.45617 6.695312,12.00391 a 2.499995,2.499995 0 0 0 3.521484,0.32812 2.499995,2.499995 0 0 0 0.326172,-3.52148 c -2.549762,-3.07232 -4.533433,-6.62551 -5.80664,-10.40821 a 2.500245,2.500245 0 0 0 0,-0.002 c -1.097229,-3.25057 -1.673249,-6.68454 -1.714844,-10.12305 -0.02317,-1.86395 0.105533,-3.72826 0.392578,-5.5625 a 2.499995,2.499995 0 0 0 -2.083984,-2.85742 z m 196.513671,20.76563 a 2.499995,2.499995 0 0 0 -3.32422,1.20508 c -1.76938,3.78057 -4.28263,7.22358 -7.3418,10.06835 a 2.500245,2.500245 0 0 0 -0.002,0.002 c -2.89296,2.69441 -6.28546,4.86316 -9.94531,6.35156 -1.07092,0.43564 -2.16197,0.8139 -3.26758,1.13086 a 2.499995,2.499995 0 0 0 -1.71484,3.0918 2.499995,2.499995 0 0 0 3.09179,1.71484 c 1.28326,-0.36789 2.54448,-0.80592 3.77539,-1.30664 4.22894,-1.71985 8.12802,-4.21309 11.4668,-7.32227 l 0.002,-0.002 c 3.52976,-3.28287 6.41976,-7.23971 8.46485,-11.60937 a 2.499995,2.499995 0 0 0 -1.20508,-3.32422 z M 32.771484,175.30273 a 2.499995,2.499995 0 0 0 -1.597656,1.05079 2.499995,2.499995 0 0 0 0.664063,3.47265 c 2.937363,1.99283 6.155768,3.56459 9.533203,4.65625 3.780697,1.22435 7.745085,1.83768 11.708984,1.83594 h 8.945313 a 2.499995,2.499995 0 0 0 2.5,-2.5 2.499995,2.499995 0 0 0 -2.5,-2.5 h -8.945313 a 2.500245,2.500245 0 0 0 -0.002,0 c -3.446963,0.002 -6.894986,-0.5325 -10.166016,-1.5918 a 2.500245,2.500245 0 0 0 -0.002,-0.002 c -2.925535,-0.94544 -5.719516,-2.3091 -8.263672,-4.03516 a 2.499995,2.499995 0 0 0 -1.875,-0.38672 z m 39.253907,6.01563 a 2.499995,2.499995 0 0 0 -2.5,2.5 2.499995,2.499995 0 0 0 2.5,2.5 h 29.999999 a 2.499995,2.499995 0 0 0 2.5,-2.5 2.499995,2.499995 0 0 0 -2.5,-2.5 z m 39.999999,0 a 2.499995,2.499995 0 0 0 -2.5,2.5 2.499995,2.499995 0 0 0 2.5,2.5 h 30 a 2.499995,2.499995 0 0 0 2.5,-2.5 2.499995,2.499995 0 0 0 -2.5,-2.5 z m 40,0 a 2.499995,2.499995 0 0 0 -2.5,2.5 2.499995,2.499995 0 0 0 2.5,2.5 h 30 a 2.499995,2.499995 0 0 0 2.5,-2.5 2.499995,2.499995 0 0 0 -2.5,-2.5 z"
         id="rect846" />
      <circle
         style="fill:#ffffff;stroke:#646464;stroke-width:4.99999;stroke-linecap:round;stroke-linejoin:round;stroke-opacity:1"
         id="path1189"
         cx="54.474266"
         cy="148.5"
         r="26.725981" />
      <circle
         style="fill:#ffffff;stroke:#646464;stroke-width:4.99999;stroke-linecap:round;stroke-linejoin:round;stroke-opacity:1"
         id="path1189-2"
         cx="179.92574"
         cy="148.5"
         r="26.725981" />
      <path
         style="color:#000000;fill:#646464;stroke-linecap:round;stroke-linejoin:round;-inkscape-stroke:none"
         d="m 108.76172,204.4668 a 7.6276629,7.6276629 0 0 0 -4.11328,3.99023 L 88.359375,245.40039 48.21875,241.03711 a 7.6276629,7.6276629 0 0 0 -6.978516,12.08594 l 23.84961,32.58007 -23.84961,32.58008 a 7.6276629,7.6276629 0 0 0 6.978516,12.08789 l 40.140625,-4.36523 16.289065,36.94531 a 7.6276629,7.6276629 0 0 0 13.95703,0 l 16.29101,-36.94531 40.14063,4.36523 a 7.6276629,7.6276629 0 0 0 6.97851,-12.08789 l -23.85156,-32.58008 23.85156,-32.58007 a 7.6276629,7.6276629 0 0 0 -6.97851,-12.08594 l -40.14063,4.36523 -16.29101,-36.94531 a 7.6276629,7.6276629 0 0 0 -9.84375,-3.99023 z m 2.86523,25.9707 11.56446,26.22656 a 7.6276629,7.6276629 0 0 0 7.80273,4.50586 l 28.49609,-3.09961 -16.93164,23.12891 a 7.6276629,7.6276629 0 0 0 0,9.00976 l 16.93164,23.12891 -28.49609,-3.09961 a 7.6276629,7.6276629 0 0 0 -7.80273,4.50586 l -11.56446,26.22656 -11.5625,-26.22656 a 7.6276629,7.6276629 0 0 0 -7.804684,-4.50586 l -28.492188,3.09961 16.929688,-23.12891 a 7.6276629,7.6276629 0 0 0 0,-9.00976 l -16.929688,-23.12891 28.492188,3.09961 a 7.6276629,7.6276629 0 0 0 7.804684,-4.50586 z"
         id="path1456"
         transform="matrix(0.2843463,-0.16416741,0.16362018,0.28339846,-24.013516,85.857552)" />
      <path
         style="color:#000000;fill:#646464;stroke-linecap:round;stroke-linejoin:round;-inkscape-stroke:none"
         d="m 108.76172,204.4668 a 7.6276629,7.6276629 0 0 0 -4.11328,3.99023 L 88.359375,245.40039 48.21875,241.03711 a 7.6276629,7.6276629 0 0 0 -6.978516,12.08594 l 23.84961,32.58007 -23.84961,32.58008 a 7.6276629,7.6276629 0 0 0 6.978516,12.08789 l 40.140625,-4.36523 16.289065,36.94531 a 7.6276629,7.6276629 0 0 0 13.95703,0 l 16.29101,-36.94531 40.14063,4.36523 a 7.6276629,7.6276629 0 0 0 6.97851,-12.08789 l -23.85156,-32.58008 23.85156,-32.58007 a 7.6276629,7.6276629 0 0 0 -6.97851,-12.08594 l -40.14063,4.36523 -16.29101,-36.94531 a 7.6276629,7.6276629 0 0 0 -9.84375,-3.99023 z m 2.86523,25.9707 11.56446,26.22656 a 7.6276629,7.6276629 0 0 0 7.80273,4.50586 l 28.49609,-3.09961 -16.93164,23.12891 a 7.6276629,7.6276629 0 0 0 0,9.00976 l 16.93164,23.12891 -28.49609,-3.09961 a 7.6276629,7.6276629 0 0 0 -7.80273,4.50586 l -11.56446,26.22656 -11.5625,-26.22656 a 7.6276629,7.6276629 0 0 0 -7.804684,-4.50586 l -28.492188,3.09961 16.929688,-23.12891 a 7.6276629,7.6276629 0 0 0 0,-9.00976 l -16.929688,-23.12891 28.492188,3.09961 a 7.6276629,7.6276629 0 0 0 7.804684,-4.50586 z"
         id="path1456-4"
         transform="matrix(0.2843463,-0.16416741,0.16362018,0.28339846,101.43795,85.857552)" />
      <rect
         style="fill:#5bd5ff;fill-opacity:1;stroke:none;stroke-width:4.99999;stroke-linecap:round;stroke-linejoin:round;stroke-miterlimit:4;stroke-dasharray:30, 9.99998;stroke-dashoffset:0;stroke-opacity:1"
         id="rect5008"
         width="154.42769"
         height="4.5889235"
         x="40.290474"
         y="95.239868" />
    </g>
  </g>
</svg>
